<svg width="32" height="32" viewBox="0 0 32 32" fill="none" xmlns="http://www.w3.org/2000/svg">
<g id="MTS Logo">
<rect width="32" height="32" fill="#FF0032"/>
<g id="Shape">
<path d="M21.3188 2.43945V3.93235H24.535V9.77304L24.5356 9.8692H26.3362V3.93235H29.5523V2.43945H21.3188Z" fill="white"/>
<path d="M9.73629 2.4617L7.38408 7.3455L5.03184 2.4617H2.46362V9.84632H4.26413V4.5613L6.56335 9.02624H8.20484L10.5047 4.5613V9.84632H12.3052V2.4617H9.73629Z" fill="white"/>
<path d="M27.7472 27.0764C27.7136 27.3492 27.5894 27.6027 27.3944 27.7964C27.1919 27.9806 26.943 28.1062 26.6745 28.1596C26.2821 28.2373 25.8826 28.2735 25.4827 28.2676C25.0568 28.2752 24.6325 28.2131 24.2267 28.0836C23.8941 27.9756 23.6072 27.7592 23.4118 27.4691C23.2155 27.1785 23.1186 26.759 23.1186 26.2256V25.469C23.1186 24.9316 23.2175 24.5121 23.4118 24.2216C23.6068 23.932 23.8929 23.7159 24.2247 23.6076C24.6305 23.4782 25.0548 23.416 25.4807 23.4237C25.8807 23.4177 26.2802 23.4539 26.6726 23.5317C26.9411 23.5852 27.1899 23.7108 27.3925 23.8949C27.5874 24.0886 27.7116 24.3421 27.7452 24.6148H29.5471C29.5145 24.0468 29.2978 23.5048 28.9299 23.0709C28.567 22.6718 28.0973 22.3852 27.5764 22.245C26.8933 22.0647 26.1884 21.9803 25.482 21.9943C24.6187 21.9943 23.87 22.1187 23.2567 22.3634C22.6501 22.597 22.1419 23.0315 21.8169 23.5945C21.4994 24.1397 21.3326 24.8675 21.3214 25.7596V25.8414V25.8453V25.9271C21.3326 26.8192 21.4994 27.547 21.8169 28.0922C22.1419 28.6552 22.6501 29.0897 23.2567 29.3232C23.8706 29.568 24.6201 29.6924 25.482 29.6924C26.1884 29.7066 26.8933 29.6223 27.5764 29.4417C28.0975 29.302 28.5673 29.0152 28.9299 28.6157C29.298 28.1819 29.5146 27.6398 29.5471 27.0718L27.7472 27.0764Z" fill="white"/>
</g>
</g>
</svg>
