<svg width="32" height="32" viewBox="0 0 32 32" fill="none" xmlns="http://www.w3.org/2000/svg">
<g clip-path="url(#clip0_8368_26608)">
<path d="M19 9.01246C19 8.11226 17.9234 7.66144 17.2938 8.29798V8.29798L14.1984 11.4273C12.0661 13.5829 11 14.6607 11 16C11 17.3393 12.0661 18.4171 14.1984 20.5727L17.2938 23.702C17.9234 24.3386 19 23.8877 19 22.9875C19 22.7196 18.8947 22.4625 18.7073 22.2731L15.6118 19.1437C14.5058 18.0255 13.8214 17.3276 13.3888 16.7544C12.9984 16.2371 12.9988 16.0565 12.999 16.0028L12.999 16L12.999 15.9973C12.9988 15.9435 12.9984 15.7629 13.3888 15.2456C13.8214 14.6724 14.5058 13.9745 15.6118 12.8563L18.7073 9.72695V9.72695C18.8947 9.53745 19 9.28044 19 9.01246Z" fill="#1D2023"/>
</g>
<defs>
<clipPath id="clip0_8368_26608">
<rect width="24" height="24" fill="white" transform="translate(4 4)"/>
</clipPath>
</defs>
</svg>
